<?xml version="1.0" encoding="UTF-8"?>
<svg width="184px" height="184px" viewBox="0 0 184 184" version="1.1" xmlns="http://www.w3.org/2000/svg" xmlns:xlink="http://www.w3.org/1999/xlink">
    <title>编组</title>
    <defs>
        <linearGradient x1="50%" y1="100.122278%" x2="50%" y2="-0.0579832828%" id="linearGradient-1">
            <stop stop-color="#FFFFFF" stop-opacity="0.1" offset="0%"></stop>
            <stop stop-color="#D9E9FF" offset="100%"></stop>
        </linearGradient>
        <linearGradient x1="50.0843871%" y1="100%" x2="50.0843871%" y2="0.00649473815%" id="linearGradient-2">
            <stop stop-color="#FFFFFF" stop-opacity="0.1" offset="0%"></stop>
            <stop stop-color="#F8FBFF" stop-opacity="0.27" offset="14%"></stop>
            <stop stop-color="#EDF5FF" stop-opacity="0.52" offset="37%"></stop>
            <stop stop-color="#E4F0FF" stop-opacity="0.73" offset="58%"></stop>
            <stop stop-color="#DEECFF" stop-opacity="0.88" offset="76%"></stop>
            <stop stop-color="#DAEAFF" stop-opacity="0.97" offset="91%"></stop>
            <stop stop-color="#D9E9FF" offset="100%"></stop>
        </linearGradient>
        <linearGradient x1="50.0045895%" y1="99.9311993%" x2="50.0045895%" y2="-0.0811277354%" id="linearGradient-3">
            <stop stop-color="#FFFFFF" stop-opacity="0.1" offset="0%"></stop>
            <stop stop-color="#FEFEFF" stop-opacity="0.13" offset="9%"></stop>
            <stop stop-color="#FBFCFF" stop-opacity="0.21" offset="23%"></stop>
            <stop stop-color="#F5F9FF" stop-opacity="0.33" offset="40%"></stop>
            <stop stop-color="#EEF5FF" stop-opacity="0.51" offset="59%"></stop>
            <stop stop-color="#E4EFFF" stop-opacity="0.74" offset="79%"></stop>
            <stop stop-color="#D9E9FF" offset="100%"></stop>
        </linearGradient>
        <linearGradient x1="50%" y1="100%" x2="50%" y2="0%" id="linearGradient-4">
            <stop stop-color="#FFFFFF" stop-opacity="0.1" offset="0%"></stop>
            <stop stop-color="#FBFDFF" stop-opacity="0.19" offset="13%"></stop>
            <stop stop-color="#F1F7FF" stop-opacity="0.43" offset="41%"></stop>
            <stop stop-color="#E1EEFF" stop-opacity="0.82" offset="81%"></stop>
            <stop stop-color="#D9E9FF" offset="100%"></stop>
        </linearGradient>
        <linearGradient x1="50%" y1="100%" x2="50%" y2="0%" id="linearGradient-5">
            <stop stop-color="#FFFFFF" offset="0%"></stop>
            <stop stop-color="#D9E9FF" offset="100%"></stop>
        </linearGradient>
        <linearGradient x1="0%" y1="50.0060613%" x2="100%" y2="50.0060613%" id="linearGradient-6">
            <stop stop-color="#E0E7FF" offset="0%"></stop>
            <stop stop-color="#CCDFFB" offset="33%"></stop>
            <stop stop-color="#BBD9F7" offset="71%"></stop>
            <stop stop-color="#B5D7F6" offset="100%"></stop>
        </linearGradient>
        <linearGradient x1="0%" y1="50%" x2="100%" y2="50%" id="linearGradient-7">
            <stop stop-color="#EEF6FF" offset="0%"></stop>
            <stop stop-color="#D2E6FE" offset="100%"></stop>
        </linearGradient>
        <linearGradient x1="-1198.12563%" y1="-1361.69233%" x2="-1298.12563%" y2="-1361.69233%" id="linearGradient-8">
            <stop stop-color="#ECF5FF" offset="0%"></stop>
            <stop stop-color="#F9FCFF" offset="24.839494%"></stop>
            <stop stop-color="#DAEAFF" offset="45%"></stop>
            <stop stop-color="#C7DFFF" offset="74.7030722%"></stop>
            <stop stop-color="#C0DBFF" offset="100%"></stop>
        </linearGradient>
        <linearGradient x1="100%" y1="50%" x2="-14.8903051%" y2="50%" id="linearGradient-9">
            <stop stop-color="#FFFFFF" offset="0%"></stop>
            <stop stop-color="#F9FCFF" offset="6%"></stop>
            <stop stop-color="#DAEAFF" offset="67.4804304%"></stop>
            <stop stop-color="#C7DFFF" offset="84.9696706%"></stop>
            <stop stop-color="#C0DBFF" offset="100%"></stop>
        </linearGradient>
        <linearGradient x1="28.6970471%" y1="56.9855846%" x2="106.883829%" y2="45.8848302%" id="linearGradient-10">
            <stop stop-color="#D7E8FF" offset="0%"></stop>
            <stop stop-color="#EAF3FF" offset="100%"></stop>
        </linearGradient>
        <linearGradient x1="-1416.74401%" y1="-4054.70568%" x2="-1316.74401%" y2="-4054.70568%" id="linearGradient-11">
            <stop stop-color="#CBE2FC" offset="0%"></stop>
            <stop stop-color="#FCFDFF" offset="4%"></stop>
            <stop stop-color="#E9F3FF" offset="35%"></stop>
            <stop stop-color="#DEECFF" offset="66%"></stop>
            <stop stop-color="#DAEAFF" offset="100%"></stop>
        </linearGradient>
    </defs>
    <g id="页面-1" stroke="none" stroke-width="1" fill="none" fill-rule="evenodd">
        <g id="暂无内容" transform="translate(-868.000000, -377.000000)" fill-rule="nonzero">
            <g id="编组" transform="translate(868.000000, 377.000000)">
                <rect id="矩形" x="0" y="0" width="184" height="184"></rect>
                <g>
                    <rect id="矩形" fill="#F4F7F9" opacity="0" x="0" y="0" width="184" height="184"></rect>
                    <polygon id="路径" fill="#E4EFFF" points="36.1837585 106.734375 37.015625 115.359375 31.8046875 114.785729"></polygon>
                    <polygon id="路径" fill="#F3F8FF" points="35.9375 106.734375 41.328125 113.541983 36.7545728 115.359375"></polygon>
                    <polygon id="路径" fill="#E4EFFF" points="18.0296003 108.890625 19.046875 119.851562 12.7578125 119.120497"></polygon>
                    <polygon id="路径" fill="#F3F8FF" points="18.1484375 108.890625 24.796875 117.552489 19.1670283 119.851562"></polygon>
                    <polygon id="路径" fill="#E4EFFF" points="26.6801337 101.34375 28.390625 119.492188 16.890625 118.361695"></polygon>
                    <polygon id="路径" fill="#F3F8FF" points="26.4140625 101.34375 38.453125 115.60612 28.1259225 119.492188"></polygon>
                    <path d="M30.0485468,61.4579022 C29.3775965,57.8619939 26.2361606,55.2792104 22.6134054,55.344978 C20.67513,55.3359126 18.8043506,56.0632617 17.3724882,57.3826195 C16.5701376,57.0173897 15.7002159,56.8281414 14.8201263,56.8273623 C12.031596,56.7829852 9.59031911,58.7095023 8.95877334,61.4528082 C6.81568094,61.9313173 5.27031489,63.8217493 5.2109375,66.0375015 C5.29334133,68.7338553 7.51403007,70.8582426 10.1845124,70.7953944 L28.8076752,70.7953944 C31.4792274,70.8610511 33.7015654,68.7350862 33.78125,66.0375015 C33.7230569,63.8275467 32.1848594,61.9403545 30.0485468,61.4579022 L30.0485468,61.4579022 Z" id="路径" fill="url(#linearGradient-1)"></path>
                    <path d="M138.128386,36.493736 C137.16027,34.9770394 135.523092,34.0349395 133.742573,33.969956 C132.705773,32.3653752 130.929554,31.4125046 129.038067,31.4461761 C127.521577,31.4308707 126.062901,32.0354761 124.99118,33.1235664 C124.5005,32.9647814 123.988656,32.8834667 123.473597,32.8824736 C121.090992,32.8824736 119.123193,34.5547344 118.920849,36.6681435 C117.104593,37.1071195 115.796875,38.7160116 115.71875,40.6077026 C115.71875,42.88526 117.777604,44.7421875 120.271498,44.7421875 L137.759108,44.7421875 C140.288412,44.7421875 142.311856,42.88526 142.311856,40.6077026 C142.352325,38.4429971 140.480639,36.663014 138.128386,36.493736 Z" id="路径" fill="url(#linearGradient-2)"></path>
                    <path d="M170.635545,30.8600437 C168.928273,27.3425659 165.364037,25.104222 161.450952,25.0921086 C159.271494,25.0967939 157.151523,25.8027394 155.405142,27.1053494 C153.327081,23.0562447 148.814011,20.8737594 144.345823,21.7571492 C139.877635,22.6405389 136.536897,26.3757729 136.159313,30.9103747 C131.35276,32.4255323 128.370233,37.2158084 129.134737,42.1926411 C129.899241,47.169474 134.182359,50.8459023 139.222523,50.851581 L167.657984,50.851581 C172.727299,50.8611384 177.036352,47.1544356 177.779438,42.1449183 C178.522523,37.1354009 175.474687,32.3396114 170.620431,30.8801761 L170.635545,30.8600437 Z" id="路径" fill="url(#linearGradient-3)"></path>
                    <ellipse id="椭圆形" fill="url(#linearGradient-4)" cx="92" cy="133.328125" rx="92" ry="29.109375"></ellipse>
                    <polygon id="路径" fill="#E4EFFF" points="162.796875 108.890625 161.921162 120.390625 155.429688 118.507972"></polygon>
                    <polygon id="路径" fill="#F3F8FF" points="162.589699 108.890625 168.007813 119.023278 161.71875 120.390625"></polygon>
                    <polygon id="路径" fill="url(#linearGradient-5)" points="127.039062 110.507813 92.71875 105.185779 92.71875 69 127.039062 74.322034"></polygon>
                    <polygon id="路径" fill="url(#linearGradient-6)" points="62.7109375 111.046875 92.5390625 105.44868 92.5390625 69.1796875 62.7109375 74.7829577"></polygon>
                    <polygon id="路径" fill="url(#linearGradient-7)" points="96.8515625 116.257812 62.53125 110.935129 62.53125 74.75 96.8515625 80.0676185"></polygon>
                    <polygon id="路径" fill="url(#linearGradient-8)" points="97.2109375 116.257812 127.039062 110.659618 127.039062 74.390625 97.2109375 79.9888194"></polygon>
                    <polygon id="路径" fill="url(#linearGradient-9)" points="87.6004254 88.765625 53.3671875 83.4066908 62.6183246 74.5703125 96.8515625 79.9241477"></polygon>
                    <g id="_人物" transform="translate(64.163399, 72.594001)">
                        <path d="M21.6670854,4.54652041 L24.4225383,6.1157091 C24.4225383,6.1157091 18.8293431,6.05491177 16.4354656,8.08515186 C14.041588,10.1153919 11.9469451,14.5337113 4.26409438,11.8996176 C-3.41875637,9.26552399 2.41881378,6.43760084 5.36627551,6.93211464 C8.31373724,7.42662846 12.3334566,6.38293096 14.3433163,4.29802103 C16.353176,2.21311104 20.9788457,3.99733674 21.6670854,4.54652041 Z" id="路径" fill="url(#linearGradient-10)"></path>
                        <path d="M13.7323788,1.70368728 C13.7323788,1.70368728 11.2961097,1.74593218 9.64283801,3.98242678 C9.17403699,4.6409502 8.89973854,5.06588415 8.67780613,5.40881332 C8.45587372,5.7517425 7.83745538,6.35559605 6.92977679,5.61506785 C6.02209819,4.87453962 3.75040816,2.96606424 3.75040816,2.96606424 L2.55346938,4.57385534 C2.55346938,4.57385534 6.50336735,8.9051999 8.11424744,8.7014304 C9.72512754,8.49517587 11.5280166,8.6591855 13.6076977,6.09467167 C15.6873788,3.52767288 16.2235076,2.91139437 16.2235076,2.91139437 L13.7323788,1.70368728 Z" id="路径" fill="#143E81"></path>
                        <path d="M3.16440688,1.78569208 L0.244375001,5.70204262 C0.244375001,5.70204262 1.27673469,6.76562005 2.37891582,5.18764884 C3.48109693,3.60967767 4.07956633,2.67034995 4.07956633,2.67034995 L3.16440688,1.78569208 Z" id="路径" fill="#003A8C"></path>
                        <polygon id="路径" fill="#001529" points="2.9649171 1.51731273 1.52609694 3.13007384 1.79540816 3.42578813 0 5.53554803 0.23440051 5.77410743 3.49605867 2.01928153"></polygon>
                        <path d="M13.8470855,1.83042197 C13.8470855,1.83042197 11.9843495,2.37960565 10.844764,4.62852522 C9.70767217,6.87992978 9.53311863,7.71985774 8.27383929,7.09860927 C7.01705356,6.47736074 4.70297195,5.32432352 4.70297195,5.32432352 L3.68308036,7.11600422 C3.68308036,7.11600422 8.23643494,10.7838553 10.0069069,9.9787173 C11.7773788,9.17357925 17.2409056,5.49578813 17.2409056,5.49578813 C17.2409056,5.49578813 17.6274171,4.12407143 17.5625829,4.05946159 C17.5002424,3.99982173 13.8470855,1.83042197 13.8470855,1.83042197 Z" id="路径" fill="#3E65A3"></path>
                        <path d="M3.98480867,4.41481571 L1.06477679,8.33116626 C1.06477679,8.33116626 2.09713648,9.39474371 3.19931761,7.81677252 C4.30149872,6.23880131 4.8999681,5.29947359 4.8999681,5.29947359 L3.98480867,4.41481571 Z" id="路径" fill="#003A8C"></path>
                        <polygon id="路径" fill="#001529" points="3.78531889 4.14643636 2.34649872 5.7591975 2.61580994 6.05491177 0.822895406 8.16467167 1.05729592 8.4032311 4.31646047 4.64840517"></polygon>
                        <path d="M24.4225383,6.1157091 C24.4225383,6.1157091 23.5225831,-0.17993817 18.4353508,0.00395138565 C13.3481185,0.187840942 12.2636352,0.878669274 12.1589031,1.43779292 C12.086588,1.815512 12.5254656,1.9447317 12.5254656,1.9447317 C12.5254656,1.9447317 16.0863584,3.3065084 16.6549044,5.85114226 C16.7471684,6.27110625 17.0588712,6.14437156 17.9391199,5.79647237 C18.8193686,5.44857322 20.1534567,5.03109426 21.8690689,5.33177852 C22.9526205,5.46980598 24.4225383,6.1157091 24.4225383,6.1157091 Z" id="路径" fill="#53A4FC"></path>
                    </g>
                    <polygon id="路径" fill="url(#linearGradient-11)" points="106.481312 88.765625 136.382812 83.1767546 127.112438 74.390625 97.2109375 79.9794951"></polygon>
                </g>
            </g>
        </g>
    </g>
</svg>
